<svg xmlns="http://www.w3.org/2000/svg" xmlns:xlink="http://www.w3.org/1999/xlink" version="1.2" baseProfile="tiny" id="Layer_1" x="0px" y="0px" width="632px" height="729.6px" viewBox="0 0 632 729.6" xml:space="preserve">

<g id="XMLID_67_">
	<path id="XMLID_80_" d="M145.3,577.5c0-13.4-0.3-15.3-7.7-16.2l-2-0.3c-0.8-0.5-0.5-2.8,0.3-3.2c5.4,0.3,9.7,0.4,14.8,0.4h23.7   c8.1,0,15.5,0,17-0.4c0.8,2.2,1.5,11.5,2,17.1c-0.5,0.8-2.5,1-3.1,0.3c-1.9-6.1-3-10.6-9.6-12.2c-2.6-0.6-6.7-0.8-12.2-0.8h-9.1   c-3.8,0-3.8,0.3-3.8,5.2v25.8c0,3.6,0.4,3.6,4.2,3.6h7.3c5.3,0,9.2-0.3,10.7-0.8s2.4-1.3,3-4.5l1-5.3c0.6-0.8,2.8-0.8,3.3,0.1   c0,3.1-0.5,8.1-0.5,13c0,4.6,0.5,9.5,0.5,12.4c-0.5,0.9-2.6,0.9-3.3,0.1l-1.1-5c-0.5-2.3-1.4-4.3-3.9-4.9c-1.8-0.5-4.8-0.6-9.7-0.6   h-7.3c-3.8,0-4.2,0.1-4.2,3.5v18.2c0,6.8,0.4,11.2,2.4,13.4c1.5,1.5,4.2,3,15.2,3c9.7,0,13.3-0.5,16.1-1.9   c2.3-1.3,5.7-5.8,8.9-12.5c0.9-0.6,2.6-0.3,3.1,0.9c-0.9,4.5-4,14.4-5.7,17.9c-11.3-0.3-22.5-0.4-33.7-0.4h-11.3   c-5.4,0-9.7,0.1-17.1,0.4c-0.8-0.4-1-2.4-0.3-3.2l4.2-0.4c7.2-0.6,7.8-2.6,7.8-16.1V577.5z"/>
	<path id="XMLID_77_" d="M279.1,613.3c-0.9-2.8-1.4-3.2-5.2-3.2h-19c-3.1,0-3.9,0.4-4.8,3.1l-4.4,13.5c-1.9,5.8-2.8,9.3-2.8,10.7   c0,1.5,0.6,2.3,3.6,2.6l4.2,0.4c0.9,0.6,0.9,2.7-0.3,3.2c-3.3-0.3-7.2-0.3-13.1-0.4c-4.2,0-8.7,0.3-12.1,0.4   c-0.8-0.5-1-2.6-0.3-3.2l4.2-0.4c3-0.3,5.8-1.7,7.5-6.3c2.3-5.9,5.8-14.3,11.1-28.7l12.8-34.8c1.8-4.6,2.5-7.1,2.1-9.1   c3-0.9,5.2-3.2,6.5-4.9c0.8,0,1.6,0.3,1.9,1.2c1.6,5.7,3.6,11.6,5.5,17.3l17.2,51.8c3.6,11.1,5.3,13,10.7,13.7l3.4,0.4   c0.9,0.6,0.6,2.7,0,3.2c-5.2-0.3-9.6-0.4-15.2-0.4c-6,0-10.8,0.3-14.5,0.4c-1-0.5-1.1-2.6-0.3-3.2l3.6-0.4c2.6-0.3,4.4-1,4.4-2.3   c0-1.4-0.6-3.7-1.6-6.8L279.1,613.3z M254.2,601.8c-1,3-0.9,3.1,2.6,3.1h15.5c3.6,0,3.9-0.5,2.8-4l-6.8-21c-1-3.1-2.1-6.6-2.9-8.1   h-0.3c-0.4,0.6-1.6,3.7-3,7.6L254.2,601.8z"/>
	<path id="XMLID_75_" d="M357.8,623.8c0,13.5,0.3,15.2,8.3,16.1l3.4,0.4c0.8,0.6,0.5,2.8-0.3,3.2c-7.2-0.3-11.3-0.4-16.4-0.4   c-5.3,0-9.8,0.1-15.3,0.4c-0.8-0.4-1-2.4-0.3-3.2l2.6-0.4c7.3-1,7.5-2.6,7.5-16.1v-47.5c0-10.9-0.3-13.1-5.9-13.8l-4.5-0.5   c-0.9-0.8-0.8-2.7,0.3-3.2c6.7-0.9,14.5-1,24.9-1s18.2,1.4,24.2,5.2c5.8,3.7,10.1,10.4,10.1,19.3c0,11.8-7.2,17.8-12.6,20.5   c-5.5,2.7-12.2,3.9-17.4,3.9c-0.9-0.4-0.9-2.3-0.1-2.6c13.6-2.6,18.5-10.4,18.5-21.6c0-12.5-7.2-20.6-20.3-20.6   c-6.7,0-6.8,0.5-6.8,4.6V623.8z"/>
	<path id="XMLID_73_" d="M440.2,577.5c0-13.4-0.3-15.3-7.7-16.2l-2-0.3c-0.8-0.5-0.5-2.8,0.3-3.2c5.4,0.3,9.7,0.4,14.8,0.4h23.7   c8.1,0,15.5,0,17-0.4c0.8,2.2,1.5,11.5,2,17.1c-0.5,0.8-2.5,1-3.1,0.3c-1.9-6.1-3-10.6-9.6-12.2c-2.6-0.6-6.7-0.8-12.2-0.8h-9.1   c-3.8,0-3.8,0.3-3.8,5.2v25.8c0,3.6,0.4,3.6,4.2,3.6h7.3c5.3,0,9.2-0.3,10.7-0.8c1.5-0.5,2.4-1.3,3-4.5l1-5.3   c0.6-0.8,2.8-0.8,3.3,0.1c0,3.1-0.5,8.1-0.5,13c0,4.6,0.5,9.5,0.5,12.4c-0.5,0.9-2.6,0.9-3.3,0.1l-1.1-5c-0.5-2.3-1.4-4.3-3.9-4.9   c-1.8-0.5-4.8-0.6-9.7-0.6h-7.3c-3.8,0-4.2,0.1-4.2,3.5v18.2c0,6.8,0.4,11.2,2.4,13.4c1.5,1.5,4.2,3,15.2,3   c9.7,0,13.3-0.5,16.1-1.9c2.3-1.3,5.7-5.8,8.9-12.5c0.9-0.6,2.6-0.3,3.1,0.9c-0.9,4.5-4,14.4-5.7,17.9c-11.3-0.3-22.5-0.4-33.7-0.4   h-11.3c-5.4,0-9.7,0.1-17.1,0.4c-0.8-0.4-1-2.4-0.3-3.2l4.2-0.4c7.2-0.6,7.8-2.6,7.8-16.1V577.5z"/>
	<path id="XMLID_72_" d="M366.4,604c-2.9,0.7-6.3,1.1-6.3,1.1c1.9,1,3.9,1.4,6.4,1.5"/>
	<path id="XMLID_71_" d="M74.6,605.3c-0.6-0.9-0.2-2.1,0.7-2.6l0,0c5.4-2.7,12.6-8.6,12.6-20.5c0-8.9-4.3-15.6-10.1-19.3   c-5.6-3.6-13-5-22.8-5.1l0,0c-11,0-19,0.4-25.5,1c-1,0.5-1,2.6-0.1,3.2l4,0.5c5.2,0.6,5.5,2.8,5.5,15.1v46.2   c0,13.5-0.3,15.2-7.5,16.1l-3.1,0.4c-0.8,0.9-0.5,2.8,0.3,3.2c5.9-0.3,10.4-0.4,15.7-0.4c5,0,9.3,0.1,15,0.4c0.8-0.4,1-2.6,0.3-3.2   l-2.6-0.4c-7.3-1-7.5-2.6-7.5-16.1v-23.5v-33.9c0-4.1,0.1-4.6,6.8-4.6c13.1,0,20.3,8.1,20.3,20.6c0,11.2-4.9,19.1-18.5,21.6   c-0.8,0.3-0.8,2.2,0.1,2.6c0.6,0,1.2,0,1.9-0.1c1.5-0.1,3,0.5,3.9,1.8c0.1,0.2,0.3,0.4,0.4,0.6c3.9,5.8,9.1,14.7,12.3,19.4   c8.9,13,15.3,16.2,26,16.2c2.4,0,4.4-0.3,5.5-0.6c0.6-0.5,0.5-1.5-0.1-1.8c-3.4-0.3-6.5-1.7-8.7-3.6   C91,631.4,84.1,620.9,74.6,605.3z"/>
	<path id="XMLID_70_" d="M574.5,605.3c-0.6-0.9-0.2-2.1,0.7-2.6l0,0c5.4-2.7,12.6-8.6,12.6-20.5c0-8.9-4.3-15.6-10.1-19.3   c-5.6-3.6-13-5-22.8-5.1l0,0c-11,0-19,0.4-25.5,1c-1,0.5-1,2.6-0.1,3.2l4,0.5c5.2,0.6,5.5,2.8,5.5,15.1v46.2   c0,13.5-0.3,15.2-7.5,16.1l-3.1,0.4c-0.8,0.9-0.5,2.8,0.3,3.2c5.9-0.3,10.4-0.4,15.7-0.4c5,0,9.3,0.1,15,0.4c0.8-0.4,1-2.6,0.3-3.2   l-2.6-0.4c-7.3-1-7.5-2.6-7.5-16.1v-23.5v-33.9c0-4.1,0.1-4.6,6.8-4.6c13.1,0,20.3,8.1,20.3,20.6c0,11.2-4.9,19.1-18.5,21.6   c-0.8,0.3-0.8,2.2,0.1,2.6c0.6,0,1.2,0,1.9-0.1c1.5-0.1,3,0.5,3.9,1.8c0.1,0.2,0.3,0.4,0.4,0.6c3.9,5.8,9.1,14.7,12.3,19.4   c8.9,13,15.3,16.2,26,16.2c2.4,0,4.4-0.3,5.5-0.6c0.6-0.5,0.5-1.5-0.1-1.8c-3.4-0.3-6.5-1.7-8.7-3.6   C590.9,631.4,584,620.9,574.5,605.3z"/>
</g>


</svg>